<svg xmlns="http://www.w3.org/2000/svg" width="16.09" height="19.937" viewBox="0 0 16.09 19.937">
  <defs>
    <style>
      .cls-1 {
        fill: #fff;
        fill-rule: evenodd;
      }
    </style>
  </defs>
  <path id="Apple_Icon" data-name="Apple Icon" class="cls-1" d="M1254.34,63.57a4.524,4.524,0,0,1,2.14-3.8,4.59,4.59,0,0,0-3.62-1.975c-1.53-.162-3,0.919-3.78.919s-1.99-.9-3.27-0.877a4.815,4.815,0,0,0-4.06,2.5c-1.75,3.065-.45,7.571,1.23,10.049,0.85,1.214,1.83,2.569,3.11,2.521,1.26-.052,1.73-0.81,3.25-0.81,1.5,0,1.95.81,3.26,0.779,1.35-.022,2.2-1.219,3.01-2.444a10.309,10.309,0,0,0,1.38-2.832A4.351,4.351,0,0,1,1254.34,63.57Zm-2.48-7.408a4.461,4.461,0,0,0,1.01-3.194,4.5,4.5,0,0,0-2.91,1.518,4.307,4.307,0,0,0-1.04,3.078A3.7,3.7,0,0,0,1251.86,56.163Z" transform="translate(-1240.91 -52.969)"/>
</svg>
