<svg width="55" height="55" viewBox="0 0 55 55" fill="none" xmlns="http://www.w3.org/2000/svg">
<path d="M27.5 0C20.0372 0 19.0988 0.034375 16.1666 0.165C13.2344 0.3025 11.2372 0.763125 9.4875 1.44375C7.6522 2.13407 5.98981 3.2169 4.61656 4.61656C3.21776 5.99052 2.13506 7.6527 1.44375 9.4875C0.763125 11.2338 0.299063 13.2344 0.165 16.1562C0.034375 19.0953 0 20.0303 0 27.5034C0 34.9697 0.034375 35.9047 0.165 38.8369C0.3025 41.7656 0.763125 43.7628 1.44375 45.5125C2.14844 47.3206 3.08688 48.8537 4.61656 50.3834C6.14281 51.9131 7.67594 52.855 9.48406 53.5562C11.2372 54.2369 13.2309 54.7009 16.1597 54.835C19.0953 54.9656 20.0303 55 27.5 55C34.9697 55 35.9013 54.9656 38.8369 54.835C41.7622 54.6975 43.7663 54.2369 45.5159 53.5562C47.3501 52.8656 49.0112 51.7828 50.3834 50.3834C51.9131 48.8537 52.8516 47.3206 53.5562 45.5125C54.2334 43.7628 54.6975 41.7656 54.835 38.8369C54.9656 35.9047 55 34.9697 55 27.5C55 20.0303 54.9656 19.0953 54.835 16.1597C54.6975 13.2344 54.2334 11.2338 53.5562 9.4875C52.865 7.65265 51.7823 5.99045 50.3834 4.61656C49.0106 3.21639 47.3481 2.13347 45.5125 1.44375C43.7594 0.763125 41.7587 0.299063 38.8334 0.165C35.8978 0.034375 34.9663 0 27.4931 0H27.5034H27.5ZM25.0353 4.95688H27.5034C34.8459 4.95688 35.7156 4.98094 38.6134 5.115C41.2947 5.23531 42.7522 5.68563 43.7216 6.06031C45.0037 6.55875 45.9216 7.15687 46.8841 8.11937C47.8466 9.08187 48.4413 9.99625 48.9397 11.2819C49.3178 12.2478 49.7647 13.7053 49.885 16.3866C50.0191 19.2844 50.0466 20.1541 50.0466 27.4931C50.0466 34.8322 50.0191 35.7053 49.885 38.6031C49.7647 41.2844 49.3144 42.7384 48.9397 43.7078C48.4988 44.9019 47.7951 45.9815 46.8806 46.8669C45.9181 47.8294 45.0038 48.4241 43.7181 48.9225C42.7556 49.3006 41.2981 49.7475 38.6134 49.8713C35.7156 50.0019 34.8459 50.0328 27.5034 50.0328C20.1609 50.0328 19.2878 50.0019 16.39 49.8713C13.7088 49.7475 12.2547 49.3006 11.2853 48.9225C10.0908 48.4822 9.01012 47.7798 8.12281 46.8669C7.20758 45.9801 6.5028 44.8994 6.06031 43.7044C5.68563 42.7384 5.23531 41.2809 5.115 38.5997C4.98438 35.7019 4.95688 34.8322 4.95688 27.4862C4.95688 20.1437 4.98438 19.2775 5.115 16.3797C5.23875 13.6984 5.68563 12.2409 6.06375 11.2716C6.56219 9.98938 7.16031 9.07156 8.12281 8.10906C9.08531 7.14656 9.99969 6.55188 11.2853 6.05344C12.2547 5.67531 13.7088 5.22844 16.39 5.10469C18.9269 4.98781 19.91 4.95344 25.0353 4.95V4.95688V4.95688ZM42.1816 9.52187C41.7482 9.52187 41.3191 9.60723 40.9187 9.77307C40.5183 9.93891 40.1545 10.182 39.8481 10.4884C39.5417 10.7949 39.2986 11.1586 39.1328 11.559C38.9669 11.9594 38.8816 12.3885 38.8816 12.8219C38.8816 13.2552 38.9669 13.6844 39.1328 14.0847C39.2986 14.4851 39.5417 14.8489 39.8481 15.1553C40.1545 15.4618 40.5183 15.7048 40.9187 15.8707C41.3191 16.0365 41.7482 16.1219 42.1816 16.1219C43.0568 16.1219 43.8961 15.7742 44.515 15.1553C45.1339 14.5365 45.4816 13.6971 45.4816 12.8219C45.4816 11.9467 45.1339 11.1073 44.515 10.4884C43.8961 9.86955 43.0568 9.52187 42.1816 9.52187V9.52187ZM27.5034 13.3787C25.6302 13.3495 23.7699 13.6932 22.0309 14.3899C20.2918 15.0865 18.7086 16.1221 17.3736 17.4365C16.0386 18.7508 14.9784 20.3176 14.2548 22.0456C13.5311 23.7736 13.1584 25.6283 13.1584 27.5017C13.1584 29.3751 13.5311 31.2298 14.2548 32.9579C14.9784 34.6859 16.0386 36.2526 17.3736 37.567C18.7086 38.8813 20.2918 39.9169 22.0309 40.6136C23.7699 41.3102 25.6302 41.6539 27.5034 41.6247C31.2109 41.5668 34.747 40.0535 37.3484 37.4112C39.9497 34.7689 41.4078 31.2097 41.4078 27.5017C41.4078 23.7938 39.9497 20.2345 37.3484 17.5923C34.747 14.95 31.2109 13.4366 27.5034 13.3787V13.3787ZM27.5034 18.3322C29.9349 18.3322 32.2668 19.2981 33.9861 21.0174C35.7054 22.7367 36.6713 25.0685 36.6713 27.5C36.6713 29.9315 35.7054 32.2633 33.9861 33.9826C32.2668 35.7019 29.9349 36.6678 27.5034 36.6678C25.072 36.6678 22.7401 35.7019 21.0208 33.9826C19.3015 32.2633 18.3356 29.9315 18.3356 27.5C18.3356 25.0685 19.3015 22.7367 21.0208 21.0174C22.7401 19.2981 25.072 18.3322 27.5034 18.3322V18.3322Z" fill="white"/>
</svg>
