<svg width="32" height="32" viewBox="0 0 32 32" fill="none" xmlns="http://www.w3.org/2000/svg">
<path d="M31.9118 17.4894L17.0768 0.490041C16.9427 0.336219 16.7769 0.212854 16.5907 0.128305C16.4044 0.043757 16.2021 0 15.9974 0C15.7926 0 15.5903 0.043757 15.4041 0.128305C15.2178 0.212854 15.052 0.336219 14.9179 0.490041L0.0874293 17.4894C0.0426145 17.5407 0.0135565 17.6036 0.003717 17.6708C-0.00612247 17.738 0.00367107 17.8066 0.031931 17.8684C0.0601909 17.9302 0.105726 17.9827 0.163113 18.0195C0.220499 18.0563 0.287319 18.0759 0.355612 18.0761H3.97608C4.18168 18.0761 4.37835 17.9872 4.51691 17.8316L14.3011 6.61871V31.6445C14.3011 31.84 14.462 32 14.6587 32H17.3405C17.5372 32 17.6981 31.84 17.6981 31.6445V6.61871L27.4823 17.8316C27.6164 17.9872 27.813 18.0761 28.0231 18.0761H31.6436C31.9475 18.0761 32.1129 17.7205 31.9118 17.4894Z" fill="white"/>
</svg>
